<svg class="footer-animation" overflow="visible" width="342" height="295" viewBox="0 0 342 295" fill="none" xmlns="http://www.w3.org/2000/svg">
    <defs>
        <mask id="mask-you-me">
            <path class="anim-mask-you-me" d="M51.5991 44.4104C64.0305 95.9094 141.974 65.1735 160.321 140.305C178.667 215.436 84.4527 206.898 84.4527 155.399C84.4527 103.9 159.676 90.2415 216.322 106.564C272.967 122.886 288.321 168.718 302.879 221.105" stroke="white" stroke-width="8" stroke-linecap="round" stroke-linejoin="round" stroke-dasharray="600 600" stroke-dashoffset="600"/>
        </mask>
    </defs>
    
    <g mask="url(#mask-you-me)">
        <path class="line-you-me" d="M51.5991 44.4104C64.0305 95.9094 141.974 65.1735 160.321 140.305C178.667 215.436 84.4527 206.898 84.4527 155.399C84.4527 103.9 159.676 90.2415 216.322 106.564C272.967 122.886 288.321 168.718 302.879 221.105" stroke="#D9D9D9" stroke-width="2" stroke-linecap="round" stroke-linejoin="round" stroke-dasharray="8 8"/>
    </g>
    <g class="me">
        <rect class="pill-me" x="16.3203" y="17.4736" width="44" height="28" rx="14" transform="rotate(-20.5896 16.3203 17.4736)" fill="#80A353"/>
        <path class="text-me" d="M31.5248 21.6672L33.6551 20.867L37.967 25.5109L38.0628 25.4749L38.2506 19.1406L40.3808 18.3403L43.4499 26.5101L41.7745 27.1395L39.7768 21.822L39.709 21.8475L39.5774 27.9194L38.4365 28.348L34.3321 23.8446L34.2643 23.8701L36.2694 29.2076L34.594 29.837L31.5248 21.6672ZM45.7717 25.6379L42.7026 17.4681L48.2076 15.4L48.7426 16.8242L44.9649 18.2433L45.6962 20.19L49.1907 18.8773L49.7257 20.3014L46.2312 21.6142L46.964 23.5649L50.7577 22.1397L51.2927 23.5638L45.7717 25.6379Z" fill="#2E3532"/>
    </g>
    <g class="you">
        <rect class="pill-you" x="282" y="237.179" width="53" height="28" rx="14" transform="rotate(-21.2151 282 237.179)" fill="#C3D716"/>
        <path class="text-you" d="M296.773 241.391L298.7 240.644L301.915 243.427L301.994 243.396L302.49 239.172L304.416 238.425L303.49 244.836L304.607 247.712L302.899 248.375L301.782 245.499L296.773 241.391ZM314.814 239.069C315.159 239.956 315.284 240.776 315.189 241.529C315.097 242.281 314.826 242.933 314.376 243.486C313.928 244.035 313.345 244.448 312.627 244.727C311.904 245.008 311.191 245.095 310.489 244.99C309.787 244.885 309.148 244.586 308.573 244.093C307.998 243.6 307.538 242.911 307.195 242.027C306.851 241.14 306.725 240.32 306.817 239.568C306.909 238.816 307.179 238.166 307.627 237.617C308.074 237.065 308.66 236.649 309.383 236.369C310.1 236.09 310.81 236.003 311.512 236.109C312.216 236.21 312.856 236.508 313.431 237.001C314.009 237.492 314.47 238.182 314.814 239.069ZM313.071 239.746C312.847 239.171 312.573 238.72 312.248 238.392C311.925 238.063 311.569 237.857 311.18 237.774C310.791 237.69 310.389 237.729 309.973 237.89C309.557 238.052 309.234 238.294 309.003 238.619C308.773 238.943 308.648 239.336 308.629 239.797C308.613 240.257 308.716 240.775 308.939 241.35C309.162 241.924 309.435 242.376 309.758 242.705C310.083 243.033 310.44 243.239 310.829 243.322C311.218 243.406 311.621 243.367 312.036 243.206C312.452 243.044 312.775 242.801 313.006 242.477C313.237 242.153 313.36 241.761 313.377 241.3C313.396 240.839 313.294 240.321 313.071 239.746ZM320.43 232.208L322.15 231.541L324.201 236.824C324.431 237.417 324.491 237.992 324.38 238.546C324.272 239.1 324.014 239.6 323.605 240.045C323.194 240.488 322.653 240.84 321.98 241.101C321.305 241.363 320.666 241.469 320.065 241.419C319.462 241.367 318.935 241.172 318.481 240.836C318.028 240.5 317.686 240.036 317.456 239.443L315.405 234.159L317.125 233.491L319.119 238.628C319.239 238.938 319.413 239.187 319.642 239.376C319.873 239.563 320.14 239.677 320.442 239.719C320.745 239.76 321.062 239.716 321.393 239.587C321.726 239.458 321.99 239.276 322.182 239.043C322.378 238.809 322.496 238.545 322.538 238.251C322.582 237.957 322.544 237.655 322.424 237.345L320.43 232.208Z" fill="#2E2E26"/>
    </g>
</svg>
