<svg width="339" height="418" class="hero-animation" overflow="visible" viewBox="0 0 339 418" fill="none" xmlns="http://www.w3.org/2000/svg">
    <defs>
        <mask id="mask-business-customer">
            <path class="anim-mask-business-customer" d="M41.3452 83C-55.9445 165.265 73.5391 238.73 161.343 209.344C420.89 122.48 273.343 226.792 281.344 307" stroke="white" stroke-width="8" stroke-linecap="round" stroke-linejoin="round" stroke-dasharray="600 600" stroke-dashoffset="600"/>
        </mask>
        <mask id="mask-design-tech">
            <path class="anim-mask-design-tech" d="M153.344 36.7005C153.344 83 203.938 146.899 217.343 107C232.19 62.8103 41.8882 112.743 79.0222 221.282C103.842 293.829 152.513 301.176 178.226 370.049" stroke="white" stroke-width="8" stroke-linecap="round" stroke-linejoin="round" stroke-dasharray="600 600" stroke-dashoffset="600"/>
        </mask>
        <mask id="mask-data-decision">
            <path class="anim-mask-data-decision"  d="M270.058 76.1882C294.725 142.855 294.727 274.942 164.426 280.027C88.2311 283 67.4275 303.418 57.0078 343.418" stroke="white" stroke-width="8" stroke-linecap="round" stroke-linejoin="round" stroke-dasharray="600 600" stroke-dashoffset="600"/>
        </mask>
    </defs>
    
    <g mask="url(#mask-business-customer)">
        <path class="line-business-customer"  d="M41.3452 83C-55.9445 165.265 73.5391 238.73 161.343 209.344C420.89 122.48 273.343 226.792 281.344 307" stroke="#D9D9D9" stroke-width="2" stroke-linecap="round" stroke-linejoin="round" stroke-dasharray="8 8"/>
    </g>
     <g mask="url(#mask-data-decision)">
        <path class="line-data-decision" d="M270.058 76.1882C294.725 142.855 294.727 274.942 164.426 280.027C88.2311 283 67.4275 303.418 57.0078 343.418" stroke="#D9D9D9" stroke-width="2" stroke-linejoin="round" stroke-dasharray="8 8"/>
    </g>
    <g mask="url(#mask-design-tech)">
        <path class="line-design-tech" d="M153.344 36.7005C153.344 83 203.938 146.899 217.343 107C232.19 62.8103 41.8882 112.743 79.0222 221.282C103.842 293.829 152.513 301.176 178.226 370.049" stroke="#D9D9D9" stroke-width="2" stroke-linecap="round" stroke-linejoin="round" stroke-dasharray="8 8"/>
    </g>
    <g class="data">
        <rect class="pill-data" x="231.848" y="47.2972" width="59" height="28" rx="14" transform="rotate(-15 231.848 47.2972)" fill="#3693FB"/>
        <path class="text-data" d="M251.819 60.581L248.831 61.3817L246.572 52.9518L249.585 52.1445C250.433 51.9173 251.208 51.8904 251.91 52.064C252.612 52.2348 253.212 52.5903 253.709 53.1305C254.21 53.6699 254.577 54.3773 254.812 55.2527C255.047 56.1308 255.083 56.9299 254.92 57.65C254.76 58.3694 254.417 58.9806 253.89 59.4835C253.365 59.9857 252.675 60.3516 251.819 60.581ZM250.204 59.377L251.336 59.0737C251.863 58.9326 252.281 58.7205 252.59 58.4376C252.902 58.1512 253.095 57.7861 253.17 57.3425C253.248 56.8953 253.202 56.3575 253.034 55.7291C252.867 55.1062 252.638 54.6218 252.349 54.2759C252.062 53.9293 251.713 53.7109 251.304 53.6206C250.894 53.5303 250.426 53.5557 249.899 53.6969L248.763 54.0013L250.204 59.377ZM259.168 58.6117L257.259 59.1234L257.91 49.9138L260.207 49.2983L265.372 56.9496L263.462 57.4613L259.607 51.5236L259.542 51.5412L259.168 58.6117ZM258.161 55.3301L262.673 54.1213L263.045 55.5126L258.534 56.7214L258.161 55.3301ZM264.097 49.8308L263.704 48.3614L270.627 46.5063L271.021 47.9757L268.44 48.6673L270.305 55.6277L268.543 56.0997L266.678 49.1393L264.097 49.8308ZM275.376 54.2688L273.466 54.7806L274.118 45.5709L276.414 44.9555L281.579 52.6067L279.669 53.1185L275.815 47.1808L275.749 47.1984L275.376 54.2688ZM274.369 50.9873L278.88 49.7785L279.253 51.1698L274.742 52.3786L274.369 50.9873Z" fill="#2E3532"/>
    </g>
    <g class="decision">
        <rect class="pill-decision" x="7.24609" y="339" width="89" height="28" rx="14" transform="rotate(15 7.24609 339)" fill="#92AEF7"/>
        <path class="text-decision"d="M17.9004 360.49L14.9121 359.689L17.1708 351.259L20.1839 352.066C21.0318 352.293 21.7165 352.658 22.238 353.159C22.7602 353.658 23.1018 354.266 23.2627 354.982C23.4264 355.7 23.3909 356.496 23.1564 357.371C22.9211 358.25 22.5529 358.96 22.0517 359.502C21.5533 360.045 20.9502 360.402 20.2423 360.574C19.5372 360.747 18.7566 360.719 17.9004 360.49ZM17.1035 358.639L18.2355 358.943C18.7624 359.084 19.2305 359.109 19.64 359.019C20.053 358.927 20.4029 358.707 20.6899 358.361C20.9804 358.012 21.2098 357.523 21.3782 356.895C21.5451 356.272 21.5896 355.738 21.5116 355.294C21.4364 354.85 21.244 354.487 20.9345 354.204C20.6251 353.921 20.2069 353.709 19.68 353.568L18.544 353.264L17.1035 358.639ZM24.2723 362.197L26.5311 353.767L32.2114 355.289L31.8177 356.758L27.9197 355.714L27.3815 357.723L30.9872 358.689L30.5935 360.158L26.9877 359.192L26.4484 361.205L30.3628 362.254L29.9691 363.723L24.2723 362.197ZM41.2028 360.861L39.3999 360.378C39.4295 360.136 39.4178 359.911 39.3648 359.703C39.3125 359.492 39.2241 359.3 39.0995 359.129C38.9749 358.957 38.8175 358.809 38.6273 358.685C38.4399 358.561 38.2254 358.467 37.984 358.402C37.5476 358.285 37.1385 358.292 36.7567 358.422C36.3755 358.549 36.0406 358.794 35.7519 359.158C35.464 359.519 35.2417 359.992 35.0851 360.577C34.9241 361.178 34.878 361.706 34.9468 362.163C35.0184 362.62 35.1881 362.997 35.456 363.292C35.7239 363.587 36.0706 363.792 36.4959 363.906C36.7346 363.97 36.964 363.998 37.184 363.989C37.4067 363.981 37.6138 363.938 37.8053 363.86C37.9976 363.779 38.1694 363.665 38.3207 363.517C38.4748 363.37 38.6025 363.19 38.704 362.976L40.5047 363.467C40.3543 363.841 40.1377 364.183 39.8548 364.493C39.5754 364.8 39.2413 365.053 38.8528 365.252C38.4677 365.449 38.0377 365.572 37.5627 365.621C37.0913 365.668 36.5853 365.62 36.0447 365.475C35.2928 365.273 34.6661 364.923 34.1645 364.424C33.6657 363.926 33.3312 363.308 33.161 362.571C32.9935 361.835 33.0325 361.009 33.2781 360.092C33.5244 359.173 33.9069 358.437 34.4254 357.885C34.944 357.333 35.5448 356.967 36.228 356.789C36.9119 356.607 37.6243 356.616 38.3652 356.814C38.8537 356.945 39.2881 357.135 39.6684 357.384C40.0515 357.634 40.3696 357.934 40.6229 358.284C40.8768 358.631 41.0546 359.022 41.1562 359.455C41.2605 359.889 41.2761 360.358 41.2028 360.861ZM45.9813 358.979L43.7225 367.409L41.9402 366.931L44.199 358.501L45.9813 358.979ZM52.2984 363.27C52.3544 362.929 52.2822 362.633 52.0818 362.382C51.8813 362.132 51.567 361.949 51.139 361.834C50.8481 361.756 50.5915 361.732 50.3691 361.76C50.1474 361.786 49.964 361.856 49.8187 361.97C49.6762 362.085 49.5807 362.233 49.5322 362.414C49.4862 362.563 49.4825 362.704 49.521 362.834C49.5622 362.966 49.6335 363.09 49.7349 363.205C49.8371 363.318 49.961 363.426 50.1067 363.53C50.2532 363.631 50.4128 363.726 50.5857 363.817L51.2945 364.201C51.6402 364.382 51.9483 364.582 52.2188 364.801C52.4894 365.021 52.7104 365.261 52.8817 365.522C53.0531 365.782 53.1641 366.065 53.2148 366.37C53.2682 366.675 53.2492 367.004 53.1579 367.356C53.0169 367.871 52.7653 368.283 52.4032 368.592C52.0445 368.899 51.593 369.091 51.0486 369.169C50.5078 369.244 49.8944 369.19 49.2083 369.006C48.5278 368.824 47.963 368.561 47.514 368.217C47.0677 367.874 46.758 367.46 46.5849 366.976C46.4153 366.489 46.4049 365.941 46.5537 365.33L48.2783 365.793C48.2218 366.08 48.2395 366.338 48.3315 366.566C48.4269 366.791 48.5825 366.984 48.7983 367.145C49.0175 367.304 49.2808 367.424 49.5881 367.507C49.89 367.588 50.1638 367.614 50.4096 367.586C50.6581 367.558 50.8651 367.483 51.0305 367.359C51.1959 367.236 51.3058 367.073 51.3602 366.87C51.4109 366.68 51.3973 366.506 51.3194 366.347C51.2442 366.189 51.1117 366.036 50.9219 365.888C50.7349 365.741 50.4976 365.589 50.2101 365.432L49.354 364.956C48.6896 364.592 48.2008 364.172 47.8878 363.694C47.5747 363.216 47.503 362.666 47.6726 362.044C47.8066 361.532 48.0619 361.123 48.4386 360.815C48.8179 360.508 49.2778 360.312 49.8181 360.227C50.3584 360.143 50.9359 360.183 51.5506 360.347C52.1762 360.515 52.6936 360.768 53.1028 361.107C53.5147 361.447 53.7998 361.843 53.9583 362.294C54.1168 362.745 54.1329 363.223 54.0066 363.728L52.2984 363.27ZM58.6799 362.381L56.4211 370.811L54.6388 370.334L56.8976 361.904L58.6799 362.381ZM67.6908 369.313C67.4444 370.233 67.0606 370.968 66.5393 371.519C66.0208 372.072 65.4168 372.438 64.7274 372.618C64.0415 372.796 63.3267 372.785 62.5831 372.586C61.8339 372.385 61.2072 372.035 60.7029 371.535C60.1986 371.035 59.86 370.416 59.687 369.679C59.5141 368.941 59.5504 368.114 59.796 367.198C60.0423 366.279 60.4247 365.543 60.9433 364.991C61.4618 364.438 62.064 364.073 62.75 363.895C63.4366 363.715 64.1545 363.725 64.9036 363.925C65.6473 364.125 66.2713 364.474 66.7756 364.974C67.2833 365.472 67.6237 366.089 67.7967 366.827C67.9724 367.565 67.9371 368.394 67.6908 369.313ZM65.8838 368.829C66.0433 368.234 66.0887 367.708 66.0199 367.251C65.9538 366.795 65.7886 366.418 65.5241 366.121C65.2597 365.824 64.912 365.617 64.4812 365.502C64.0504 365.386 63.6461 365.391 63.2685 365.517C62.8908 365.642 62.558 365.885 62.2701 366.246C61.9849 366.608 61.7625 367.087 61.603 367.682C61.4434 368.278 61.3967 368.803 61.4627 369.259C61.5315 369.716 61.6982 370.093 61.9626 370.39C62.227 370.687 62.5747 370.894 63.0055 371.009C63.4363 371.125 63.8406 371.12 64.2183 370.995C64.5959 370.869 64.9274 370.626 65.2125 370.264C65.5005 369.903 65.7242 369.425 65.8838 368.829ZM78.1187 367.59L75.8599 376.02L74.3205 375.607L72.0746 369.319L72.0129 369.302L70.5912 374.608L68.8089 374.13L71.0677 365.701L72.6318 366.12L74.85 372.396L74.9241 372.416L76.3446 367.114L78.1187 367.59Z" fill="#2E3532"/>
    </g>
    <g class="customer">
        <rect class="pill-customer" x="235.023" y="327.633" width="100" height="28" rx="14" transform="rotate(-12.2042 235.023 327.633)" fill="#FAAD67"/>
        <path class="text-customer" d="M257.626 335.357L255.802 335.752C255.717 335.523 255.604 335.328 255.462 335.167C255.319 335.003 255.152 334.874 254.963 334.778C254.774 334.682 254.566 334.623 254.34 334.599C254.117 334.574 253.883 334.589 253.639 334.641C253.197 334.737 252.836 334.93 252.556 335.22C252.275 335.507 252.09 335.879 251.999 336.335C251.908 336.787 251.927 337.309 252.055 337.901C252.186 338.509 252.387 339 252.657 339.375C252.93 339.749 253.253 340.006 253.626 340.146C253.999 340.287 254.401 340.31 254.832 340.217C255.073 340.165 255.29 340.084 255.481 339.976C255.676 339.867 255.84 339.734 255.975 339.577C256.109 339.418 256.21 339.237 256.277 339.037C256.347 338.836 256.378 338.617 256.37 338.38L258.196 337.994C258.234 338.396 258.197 338.799 258.087 339.203C257.979 339.605 257.798 339.982 257.543 340.337C257.291 340.688 256.964 340.994 256.565 341.255C256.167 341.512 255.694 341.7 255.147 341.819C254.387 341.983 253.669 341.958 252.995 341.743C252.323 341.528 251.744 341.132 251.255 340.554C250.77 339.976 250.427 339.224 250.226 338.296C250.025 337.366 250.029 336.537 250.238 335.809C250.446 335.081 250.814 334.481 251.34 334.01C251.865 333.535 252.502 333.217 253.252 333.055C253.746 332.948 254.22 332.919 254.672 332.966C255.126 333.013 255.547 333.134 255.932 333.33C256.317 333.523 256.653 333.789 256.941 334.128C257.233 334.466 257.461 334.876 257.626 335.357ZM264.48 330.749L266.284 330.359L267.482 335.898C267.617 336.52 267.586 337.097 267.389 337.627C267.196 338.158 266.862 338.61 266.388 338.986C265.914 339.359 265.324 339.622 264.619 339.774C263.911 339.928 263.264 339.932 262.677 339.789C262.091 339.642 261.6 339.368 261.204 338.965C260.809 338.562 260.544 338.05 260.41 337.428L259.212 331.888L261.015 331.498L262.18 336.884C262.25 337.209 262.383 337.482 262.58 337.704C262.779 337.926 263.024 338.08 263.317 338.168C263.609 338.256 263.928 338.263 264.276 338.187C264.625 338.112 264.914 337.974 265.141 337.774C265.371 337.573 265.529 337.331 265.616 337.047C265.706 336.763 265.715 336.459 265.645 336.134L264.48 330.749ZM273.864 331.287C273.758 330.958 273.559 330.728 273.266 330.597C272.973 330.466 272.61 330.447 272.176 330.54C271.882 330.604 271.643 330.7 271.458 330.827C271.273 330.951 271.141 331.097 271.064 331.265C270.99 331.432 270.973 331.607 271.012 331.791C271.04 331.945 271.101 332.071 271.195 332.17C271.292 332.268 271.411 332.345 271.554 332.402C271.697 332.455 271.856 332.495 272.034 332.52C272.21 332.543 272.396 332.555 272.591 332.557L273.397 332.574C273.787 332.577 274.152 332.614 274.493 332.686C274.834 332.757 275.141 332.87 275.412 333.023C275.684 333.177 275.912 333.377 276.096 333.625C276.283 333.873 276.417 334.174 276.496 334.528C276.607 335.051 276.571 335.533 276.39 335.973C276.212 336.41 275.898 336.787 275.449 337.105C275.003 337.419 274.432 337.652 273.738 337.802C273.05 337.951 272.427 337.975 271.871 337.875C271.317 337.773 270.852 337.547 270.477 337.195C270.103 336.84 269.843 336.357 269.697 335.746L271.442 335.369C271.523 335.651 271.657 335.872 271.843 336.032C272.031 336.189 272.257 336.29 272.523 336.334C272.79 336.375 273.079 336.362 273.39 336.295C273.696 336.228 273.951 336.127 274.157 335.989C274.366 335.851 274.515 335.689 274.606 335.504C274.697 335.319 274.72 335.123 274.675 334.918C274.634 334.726 274.542 334.578 274.4 334.472C274.261 334.365 274.073 334.29 273.837 334.245C273.603 334.199 273.323 334.173 272.995 334.165L272.016 334.133C271.259 334.113 270.632 333.963 270.135 333.681C269.638 333.399 269.323 332.942 269.189 332.311C269.075 331.796 269.115 331.315 269.309 330.869C269.506 330.422 269.825 330.038 270.267 329.715C270.709 329.393 271.241 329.165 271.863 329.03C272.496 328.893 273.072 328.882 273.591 328.996C274.112 329.11 274.547 329.332 274.894 329.661C275.241 329.989 275.474 330.407 275.592 330.913L273.864 331.287ZM277.327 329.527L277.005 328.04L284.011 326.525L284.332 328.012L281.721 328.576L283.244 335.62L281.461 336.005L279.938 328.962L277.327 329.527ZM294.474 328.726C294.675 329.656 294.67 330.486 294.459 331.215C294.25 331.943 293.88 332.545 293.349 333.02C292.821 333.492 292.18 333.809 291.428 333.972C290.67 334.136 289.952 334.111 289.275 333.897C288.598 333.683 288.014 333.287 287.523 332.71C287.032 332.133 286.686 331.381 286.486 330.454C286.285 329.524 286.288 328.695 286.497 327.966C286.706 327.238 287.074 326.638 287.603 326.166C288.131 325.692 288.774 325.372 289.532 325.208C290.285 325.046 291 325.071 291.677 325.285C292.356 325.496 292.941 325.89 293.432 326.466C293.926 327.043 294.273 327.796 294.474 328.726ZM292.646 329.122C292.516 328.519 292.315 328.03 292.045 327.656C291.778 327.28 291.459 327.021 291.088 326.877C290.717 326.734 290.313 326.709 289.877 326.804C289.441 326.898 289.084 327.087 288.805 327.371C288.527 327.655 288.342 328.024 288.251 328.476C288.163 328.929 288.184 329.456 288.314 330.058C288.445 330.661 288.643 331.15 288.91 331.525C289.18 331.9 289.501 332.159 289.872 332.303C290.243 332.446 290.647 332.471 291.083 332.376C291.519 332.282 291.876 332.093 292.155 331.809C292.433 331.525 292.617 331.157 292.705 330.705C292.796 330.252 292.776 329.724 292.646 329.122ZM295.826 323.969L298.05 323.488L301.639 328.711L301.739 328.69L302.848 322.45L305.073 321.969L306.917 330.499L305.168 330.878L303.967 325.326L303.896 325.341L302.881 331.329L301.69 331.586L298.286 326.533L298.215 326.548L299.42 332.121L297.671 332.499L295.826 323.969ZM309.342 329.975L307.497 321.445L313.244 320.202L313.566 321.689L309.622 322.542L310.061 324.574L313.71 323.785L314.032 325.272L310.383 326.061L310.823 328.098L314.784 327.241L315.106 328.728L309.342 329.975ZM317.462 328.219L315.617 319.689L318.982 318.961C319.626 318.822 320.201 318.818 320.706 318.95C321.214 319.078 321.632 319.327 321.961 319.694C322.293 320.058 322.52 320.522 322.642 321.086C322.764 321.653 322.748 322.166 322.591 322.627C322.435 323.086 322.148 323.473 321.731 323.79C321.317 324.106 320.782 324.335 320.127 324.477L317.874 324.964L317.56 323.515L319.522 323.091C319.866 323.016 320.142 322.907 320.349 322.763C320.557 322.62 320.695 322.442 320.766 322.229C320.839 322.015 320.845 321.768 320.784 321.488C320.723 321.205 320.614 320.978 320.458 320.808C320.305 320.638 320.103 320.528 319.851 320.478C319.601 320.424 319.302 320.435 318.955 320.51L317.739 320.773L319.265 327.829L317.462 328.219ZM321.229 323.341L324.188 326.764L322.197 327.195L319.283 323.761L321.229 323.341Z" fill="#2E3532"/>
    </g>
    <g class="design">
        <rect class="pill-design" x="120.826" y="0.409973" width="75" height="28" rx="14" transform="rotate(2.39883 120.826 0.409973)" fill="#80A353"/>
        <path class="text-design" d="M135.911 19.0577L132.82 18.9282L133.185 10.2086L136.302 10.3391C137.179 10.3759 137.926 10.5821 138.545 10.9577C139.163 11.3305 139.629 11.8491 139.943 12.5133C140.259 13.1777 140.398 13.9626 140.36 14.8681C140.322 15.7764 140.117 16.5498 139.747 17.1882C139.379 17.8268 138.868 18.3072 138.215 18.6296C137.564 18.9521 136.796 19.0948 135.911 19.0577ZM134.729 17.4259L135.9 17.4749C136.445 17.4977 136.908 17.4204 137.288 17.243C137.671 17.0628 137.964 16.7723 138.169 16.3714C138.376 15.9678 138.493 15.441 138.521 14.791C138.548 14.1467 138.475 13.6162 138.302 13.1995C138.131 12.7829 137.864 12.4703 137.501 12.2618C137.137 12.0532 136.683 11.9375 136.138 11.9146L134.962 11.8654L134.729 17.4259ZM142.502 19.3338L142.867 10.6142L148.743 10.8603L148.679 12.3803L144.647 12.2114L144.56 14.2891L148.29 14.4454L148.226 15.9653L144.496 15.8091L144.409 17.8911L148.458 18.0607L148.394 19.5807L142.502 19.3338ZM155.793 13.6678C155.773 13.3229 155.638 13.05 155.388 12.849C155.137 12.648 154.791 12.5382 154.348 12.5197C154.047 12.5071 153.791 12.539 153.58 12.6155C153.37 12.6891 153.206 12.7974 153.089 12.9404C152.975 13.0835 152.914 13.2487 152.906 13.436C152.894 13.5919 152.921 13.7295 152.987 13.8488C153.056 13.9683 153.153 14.0733 153.277 14.1638C153.401 14.2515 153.546 14.33 153.71 14.3995C153.875 14.4661 154.052 14.5247 154.24 14.5752L155.016 14.7954C155.393 14.8965 155.737 15.0246 156.049 15.1799C156.361 15.3351 156.629 15.5212 156.853 15.7382C157.077 15.9551 157.247 16.2068 157.363 16.4931C157.482 16.7796 157.535 17.1046 157.523 17.468C157.498 18.0015 157.342 18.4584 157.056 18.8389C156.773 19.2165 156.374 19.5027 155.86 19.6972C155.349 19.889 154.738 19.9701 154.028 19.9404C153.325 19.9109 152.716 19.7773 152.203 19.5397C151.692 19.3023 151.3 18.9659 151.025 18.5308C150.754 18.0929 150.624 17.56 150.636 16.9321L152.42 17.0068C152.427 17.3 152.501 17.5476 152.64 17.7497C152.783 17.949 152.977 18.1035 153.222 18.2134C153.471 18.3204 153.754 18.3806 154.072 18.394C154.384 18.407 154.657 18.373 154.891 18.2918C155.127 18.2107 155.313 18.0919 155.447 17.9355C155.582 17.7791 155.654 17.5958 155.662 17.3858C155.671 17.1899 155.619 17.0229 155.509 16.8846C155.401 16.7464 155.238 16.6259 155.02 16.5229C154.806 16.4201 154.541 16.3237 154.226 16.2338L153.287 15.9556C152.559 15.7459 151.991 15.442 151.581 15.0439C151.171 14.6457 150.981 14.1245 151.011 13.4803C151.03 12.9522 151.19 12.4969 151.49 12.1142C151.793 11.7317 152.199 11.4402 152.708 11.2397C153.217 11.0392 153.789 10.9523 154.425 10.979C155.072 11.0061 155.633 11.1404 156.106 11.382C156.582 11.6238 156.947 11.9476 157.2 12.3534C157.453 12.7592 157.573 13.222 157.559 13.7418L155.793 13.6678ZM161.827 11.4084L161.461 20.1281L159.618 20.0508L159.983 11.3312L161.827 11.4084ZM169.966 14.5729C169.915 14.3632 169.839 14.1766 169.738 14.0132C169.637 13.8469 169.511 13.7051 169.359 13.5878C169.211 13.4679 169.038 13.3739 168.842 13.306C168.649 13.2382 168.433 13.1993 168.194 13.1893C167.749 13.1706 167.353 13.2649 167.005 13.4722C166.661 13.6795 166.387 13.9908 166.182 14.4058C165.977 14.8181 165.861 15.3279 165.836 15.9353C165.811 16.5428 165.881 17.0632 166.048 17.4967C166.214 17.9302 166.462 18.2661 166.79 18.5045C167.119 18.7401 167.513 18.8675 167.973 18.8867C168.39 18.9042 168.749 18.8453 169.051 18.7101C169.355 18.5722 169.591 18.3702 169.759 18.1043C169.929 17.8384 170.022 17.5196 170.038 17.1478L170.41 17.2188L168.162 17.1246L168.22 15.7366L171.869 15.8895L171.823 16.988C171.791 17.7543 171.601 18.4061 171.255 18.9432C170.908 19.4774 170.445 19.8817 169.865 20.1559C169.285 20.4274 168.628 20.5477 167.896 20.517C167.079 20.4828 166.368 20.2725 165.764 19.8861C165.161 19.4968 164.7 18.9615 164.381 18.2799C164.066 17.5957 163.928 16.7937 163.966 15.8741C163.996 15.1673 164.124 14.5414 164.352 13.9965C164.582 13.4489 164.892 12.9898 165.28 12.6194C165.668 12.2489 166.113 11.9733 166.615 11.7924C167.118 11.6116 167.657 11.5333 168.233 11.5574C168.727 11.5781 169.184 11.6697 169.603 11.8323C170.023 11.9921 170.392 12.2094 170.711 12.4843C171.032 12.7594 171.29 13.0816 171.485 13.4508C171.68 13.8173 171.798 14.2175 171.84 14.6514L169.966 14.5729ZM181.676 12.24L181.311 20.9596L179.718 20.8929L176.155 15.2459L176.091 15.2432L175.861 20.7313L174.017 20.6541L174.383 11.9344L176 12.0022L179.534 17.6437L179.611 17.6469L179.841 12.1631L181.676 12.24Z" fill="#2E3532"/>
    </g>
    <g class="business">
        <rect class="pill-business" x="10.5449" y="44.9303" width="91" height="28" rx="14" transform="rotate(7.18373 10.5449 44.9303)" fill="#FB7F03"/>
        <path class="text-business" d="M20.9532 64.3845L22.0446 55.7257L25.5115 56.1627C26.1485 56.243 26.6679 56.4044 27.0697 56.6469C27.4715 56.8894 27.7584 57.1918 27.9303 57.5542C28.1026 57.9138 28.1614 58.3107 28.1067 58.7447C28.0641 59.083 27.9589 59.3718 27.7913 59.6112C27.624 59.8479 27.4117 60.033 27.1544 60.1666C26.9002 60.2978 26.618 60.3782 26.3079 60.4078L26.2972 60.4924C26.6252 60.5481 26.9221 60.68 27.188 60.8881C27.4566 61.0967 27.6616 61.3673 27.8029 61.7001C27.9446 62.0301 27.9886 62.4079 27.9349 62.8335C27.877 63.2929 27.7112 63.6886 27.4374 64.0206C27.1668 64.3502 26.7971 64.5913 26.3283 64.7441C25.8595 64.8969 25.3009 64.9325 24.6526 64.8508L20.9532 64.3845ZM22.9726 63.1186L24.465 63.3067C24.9752 63.371 25.3595 63.3206 25.6179 63.1556C25.8768 62.9878 26.0268 62.7404 26.068 62.4135C26.0982 62.1739 26.067 61.9552 25.9746 61.7574C25.8821 61.5597 25.7353 61.3951 25.5343 61.2638C25.336 61.1329 25.0903 61.049 24.7972 61.012L23.2624 60.8186L22.9726 63.1186ZM23.4186 59.5798L24.7757 59.7509C25.0266 59.7825 25.2548 59.7669 25.4603 59.704C25.6689 59.6387 25.84 59.5314 25.9733 59.3821C26.1095 59.2332 26.1919 59.0446 26.2207 58.8163C26.2602 58.5034 26.1806 58.2371 25.9821 58.0174C25.7864 57.798 25.4856 57.6627 25.0797 57.6116L23.6888 57.4363L23.4186 59.5798ZM36.2167 57.512L38.0474 57.7427L37.3386 63.3659C37.259 63.9972 37.0386 64.5307 36.6773 64.9662C36.3189 65.4021 35.8538 65.7185 35.282 65.9156C34.7106 66.1099 34.067 66.1619 33.3511 66.0717C32.6323 65.9811 32.0203 65.7708 31.515 65.4408C31.01 65.108 30.638 64.686 30.3989 64.1748C30.1598 63.6637 30.08 63.0924 30.1596 62.461L30.8684 56.8379L32.6991 57.0686L32.01 62.5353C31.9685 62.8651 32.0034 63.1673 32.1148 63.4419C32.229 63.7169 32.4094 63.9443 32.6559 64.1243C32.9024 64.3043 33.2018 64.4165 33.5541 64.4609C33.9092 64.5056 34.2271 64.4712 34.5077 64.3577C34.7911 64.2445 35.0209 64.0688 35.197 63.8304C35.3759 63.5924 35.4861 63.3085 35.5276 62.9787L36.2167 57.512ZM44.8894 61.1349C44.8985 60.7896 44.7868 60.5064 44.5541 60.2852C44.3214 60.064 43.9852 59.9257 43.5455 59.8703C43.2467 59.8326 42.9891 59.8431 42.7727 59.9017C42.5566 59.9575 42.3844 60.0518 42.256 60.1845C42.1304 60.3176 42.0559 60.4771 42.0325 60.6632C42.0073 60.8175 42.0226 60.9569 42.0785 61.0813C42.1373 61.2061 42.2247 61.3188 42.3409 61.4193C42.4574 61.517 42.5949 61.6074 42.7534 61.6904C42.9123 61.7705 43.0834 61.8436 43.267 61.9097L44.0214 62.1938C44.3885 62.3259 44.721 62.4824 45.0189 62.6631C45.3168 62.8438 45.5684 63.0516 45.7735 63.2865C45.9787 63.5214 46.1272 63.7864 46.2188 64.0814C46.3133 64.3768 46.3392 64.705 46.2966 65.0662C46.227 65.5957 46.0338 66.0381 45.717 66.3933C45.4034 66.7461 44.9822 66.9979 44.4535 67.1489C43.9279 67.2974 43.3128 67.3273 42.6082 67.2385C41.9092 67.1504 41.3139 66.9665 40.8222 66.6869C40.3334 66.4077 39.9703 66.0398 39.733 65.5833C39.4987 65.1242 39.4138 64.5824 39.4783 63.9577L41.2498 64.181C41.2329 64.4738 41.2855 64.7266 41.4076 64.9396C41.5328 65.1501 41.7132 65.3203 41.9488 65.4502C42.1876 65.5777 42.4648 65.6613 42.7805 65.7011C43.0905 65.7402 43.3654 65.729 43.6051 65.6676C43.8476 65.6065 44.0424 65.5036 44.1894 65.359C44.3365 65.2143 44.4232 65.0377 44.4495 64.8291C44.474 64.6346 44.4369 64.4638 44.338 64.3168C44.2419 64.1701 44.0898 64.0364 43.8817 63.9157C43.6764 63.7953 43.4207 63.6772 43.1146 63.5613L42.2016 63.2057C41.494 62.9361 40.9526 62.5858 40.5774 62.1548C40.2022 61.7239 40.0564 61.1886 40.1398 60.5492C40.2031 60.0245 40.4003 59.5841 40.7316 59.2279C41.0656 58.8719 41.4946 58.6153 42.0183 58.458C42.5421 58.3007 43.1197 58.2618 43.7511 58.3414C44.3937 58.4224 44.9408 58.603 45.3922 58.8832C45.8465 59.1639 46.1828 59.5169 46.4012 59.9425C46.6196 60.368 46.7005 60.8392 46.6439 61.3561L44.8894 61.1349ZM51.0907 59.3867L49.9994 68.0455L48.1687 67.8148L49.26 59.156L51.0907 59.3867ZM60.7918 60.6095L59.7004 69.2682L58.1192 69.0689L55.039 63.1444L54.9756 63.1364L54.2887 68.5861L52.458 68.3554L53.5494 59.6966L55.156 59.8991L58.2071 65.8158L58.2832 65.8254L58.9696 60.3798L60.7918 60.6095ZM62.1654 69.5789L63.2568 60.9202L69.0913 61.6556L68.9011 63.1649L64.8972 62.6603L64.6372 64.7235L68.3408 65.1903L68.1506 66.6997L64.447 66.2329L64.1864 68.3003L68.2071 68.8071L68.0169 70.3165L62.1654 69.5789ZM75.8826 65.0413C75.8917 64.696 75.78 64.4128 75.5473 64.1916C75.3146 63.9704 74.9784 63.8321 74.5387 63.7767C74.2399 63.739 73.9823 63.7495 73.7659 63.8082C73.5499 63.864 73.3776 63.9582 73.2492 64.0909C73.1236 64.224 73.0491 64.3835 73.0257 64.5696C73.0005 64.7239 73.0159 64.8633 73.0718 64.9877C73.1305 65.1125 73.2179 65.2252 73.3341 65.3257C73.4506 65.4235 73.5882 65.5138 73.7466 65.5968C73.9055 65.6769 74.0767 65.75 74.2602 65.8161L75.0147 66.1002C75.3817 66.2324 75.7142 66.3888 76.0121 66.5695C76.31 66.7502 76.5616 66.958 76.7668 67.1929C76.972 67.4278 77.1204 67.6928 77.2121 67.9878C77.3065 68.2832 77.3325 68.6115 77.2898 68.9726C77.2202 69.5021 77.027 69.9445 76.7102 70.2997C76.3966 70.6525 75.9754 70.9044 75.4467 71.0553C74.9212 71.2039 74.3061 71.2337 73.6014 71.1449C72.9024 71.0568 72.3071 70.8729 71.8155 70.5934C71.3267 70.3141 70.9636 69.9462 70.7262 69.4897C70.492 69.0306 70.4071 68.4888 70.4715 67.8641L72.243 68.0874C72.2261 68.3802 72.2787 68.6331 72.4008 68.846C72.526 69.0565 72.7064 69.2267 72.942 69.3566C73.1808 69.4841 73.458 69.5677 73.7737 69.6075C74.0838 69.6466 74.3586 69.6354 74.5983 69.574C74.8408 69.5129 75.0356 69.41 75.1827 69.2654C75.3298 69.1207 75.4164 68.9441 75.4427 68.7355C75.4672 68.541 75.4301 68.3703 75.3312 68.2232C75.2352 68.0765 75.0831 67.9428 74.8749 67.8221C74.6696 67.7017 74.4139 67.5836 74.1078 67.4677L73.1949 67.1121C72.4872 66.8425 71.9458 66.4922 71.5706 66.0613C71.1954 65.6303 71.0496 65.095 71.133 64.4556C71.1963 63.931 71.3935 63.4905 71.7248 63.1343C72.0588 62.7784 72.4878 62.5217 73.0116 62.3644C73.5353 62.2071 74.1129 62.1682 74.7443 62.2478C75.3869 62.3288 75.934 62.5094 76.3854 62.7897C76.8397 63.0703 77.176 63.4233 77.3944 63.8489C77.6128 64.2744 77.6937 64.7456 77.6372 65.2625L75.8826 65.0413ZM84.6366 66.1447C84.6458 65.7994 84.534 65.5161 84.3013 65.295C84.0686 65.0738 83.7324 64.9355 83.2927 64.8801C82.9939 64.8424 82.7364 64.8529 82.5199 64.9115C82.3039 64.9673 82.1316 65.0616 82.0032 65.1943C81.8777 65.3274 81.8032 65.4869 81.7797 65.6729C81.7545 65.8273 81.7699 65.9666 81.8258 66.0911C81.8845 66.2159 81.972 66.3285 82.0881 66.4291C82.2047 66.5268 82.3422 66.6172 82.5007 66.7001C82.6595 66.7803 82.8307 66.8534 83.0142 66.9195L83.7687 67.2036C84.1357 67.3357 84.4682 67.4922 84.7661 67.6729C85.064 67.8536 85.3156 68.0614 85.5208 68.2963C85.726 68.5312 85.8744 68.7962 85.9661 69.0912C86.0606 69.3866 86.0865 69.7148 86.0438 70.076C85.9742 70.6055 85.781 71.0479 85.4642 71.4031C85.1506 71.7559 84.7294 72.0077 84.2007 72.1587C83.6752 72.3072 83.0601 72.3371 82.3554 72.2483C81.6564 72.1601 81.0611 71.9763 80.5695 71.6967C80.0807 71.4175 79.7176 71.0496 79.4802 70.593C79.246 70.134 79.1611 69.5922 79.2255 68.9675L80.997 69.1907C80.9801 69.4835 81.0327 69.7364 81.1548 69.9494C81.28 70.1599 81.4604 70.3301 81.696 70.46C81.9348 70.5874 82.2121 70.6711 82.5277 70.7109C82.8378 70.7499 83.1126 70.7388 83.3523 70.6773C83.5948 70.6163 83.7896 70.5134 83.9367 70.3687C84.0838 70.2241 84.1705 70.0474 84.1968 69.8389C84.2213 69.6444 84.1841 69.4736 84.0852 69.3266C83.9892 69.1799 83.8371 69.0462 83.629 68.9255C83.4237 68.8051 83.168 68.687 82.8619 68.5711L81.9489 68.2155C81.2412 67.9459 80.6998 67.5956 80.3246 67.1646C79.9495 66.7336 79.8036 66.1984 79.8871 65.5589C79.9503 65.0343 80.1476 64.5939 80.4788 64.2376C80.8129 63.8817 81.2418 63.6251 81.7656 63.4678C82.2894 63.3105 82.8669 63.2716 83.4983 63.3512C84.141 63.4322 84.688 63.6128 85.1395 63.893C85.5937 64.1736 85.9301 64.5267 86.1484 64.9522C86.3668 65.3778 86.4477 65.849 86.3912 66.3658L84.6366 66.1447Z" fill="#2E3532"/>
    </g>
    <g class="tech">
        <rect class="pill-tech" x="153.344" y="390.972" width="61" height="28" rx="14" transform="rotate(-21.2151 153.344 390.972)" fill="#C3D716"/>
        <path class="text-tech" d="M168.834 396.537L168.284 395.119L174.965 392.526L175.516 393.944L173.025 394.911L175.633 401.628L173.933 402.288L171.325 395.571L168.834 396.537ZM180.119 399.887L176.961 391.751L182.443 389.623L182.993 391.041L179.231 392.501L179.984 394.44L183.464 393.089L184.014 394.507L180.534 395.858L181.289 397.801L185.066 396.334L185.617 397.753L180.119 399.887ZM192.99 388.807L191.25 389.482C191.13 389.269 190.988 389.094 190.822 388.958C190.655 388.818 190.471 388.716 190.269 388.651C190.067 388.586 189.852 388.56 189.625 388.572C189.401 388.583 189.172 388.633 188.939 388.724C188.518 388.887 188.192 389.134 187.961 389.465C187.729 389.793 187.603 390.189 187.585 390.653C187.566 391.114 187.666 391.627 187.885 392.191C188.111 392.771 188.386 393.225 188.711 393.553C189.039 393.88 189.398 394.083 189.789 394.163C190.18 394.243 190.58 394.203 190.991 394.044C191.221 393.954 191.423 393.841 191.595 393.704C191.77 393.566 191.912 393.409 192.02 393.233C192.127 393.054 192.198 392.86 192.233 392.652C192.271 392.442 192.267 392.221 192.223 391.989L193.966 391.321C194.066 391.712 194.093 392.116 194.047 392.533C194.004 392.946 193.884 393.348 193.688 393.738C193.493 394.124 193.219 394.477 192.865 394.797C192.512 395.114 192.075 395.374 191.554 395.576C190.828 395.858 190.115 395.946 189.416 395.839C188.719 395.732 188.084 395.431 187.512 394.937C186.942 394.442 186.485 393.753 186.141 392.868C185.797 391.981 185.671 391.161 185.763 390.409C185.855 389.658 186.124 389.008 186.57 388.46C187.014 387.909 187.594 387.495 188.309 387.218C188.78 387.035 189.243 386.931 189.697 386.908C190.154 386.883 190.588 386.937 190.999 387.07C191.409 387.2 191.783 387.41 192.121 387.699C192.461 387.988 192.751 388.357 192.99 388.807ZM197.17 393.268L194.012 385.132L195.732 384.464L197.035 387.821L200.527 386.466L199.224 383.109L200.94 382.443L204.099 390.578L202.382 391.245L201.078 387.884L197.586 389.239L198.891 392.6L197.17 393.268Z" fill="#2E2E26"/>
    </g>
</svg>
